<svg xmlns="http://www.w3.org/2000/svg" width="1200" height="560" viewBox="0 0 1200 560" role="img" aria-label="Stats: 343 contributions in 12 months; current streak 1 days; longest streak 9 days">
<style>
  .twinkle { animation: tw 2s ease-in-out infinite; }
  @keyframes tw { 50% { opacity:.35 } }
</style>
<defs>
  <linearGradient id="bg" x1="0" y1="0" x2="1" y2="1">
    <stop offset="0" stop-color="#05080f"/><stop offset="1" stop-color="#080c14"/></linearGradient>
  <linearGradient id="line" x1="0" x2="1">
    <stop offset="0" stop-color="#22d3ee"/><stop offset="1" stop-color="#a78bfa"/></linearGradient>
  <linearGradient id="area" x1="0" y1="0" x2="0" y2="1">
    <stop offset="0" stop-color="#22d3ee" stop-opacity=".35"/>
    <stop offset="1" stop-color="#22d3ee" stop-opacity="0"/></linearGradient>
  <pattern id="dots" width="24" height="24" patternUnits="userSpaceOnUse">
    <circle cx="2" cy="2" r="1.1" fill="#141d2b"/></pattern>
</defs>
<rect width="1200" height="560" rx="18" fill="url(#bg)"/><rect width="1200" height="560" rx="18" fill="url(#dots)" opacity=".5"/>
<g><rect x="40.0" y="36" width="262.0" height="122" rx="14" fill="#080c14" stroke="#13303c" stroke-width="1.2"/><text x="64.0" y="98" font-family="'Segoe UI', 'Helvetica Neue', Helvetica, Arial, sans-serif" font-size="46" font-weight="800" fill="#e6edf3" letter-spacing="-1">343</text><rect x="64.0" y="112" width="34" height="4" rx="2" fill="url(#line)"/><text x="64.0" y="140" font-family="'Segoe UI', 'Helvetica Neue', Helvetica, Arial, sans-serif" font-size="17" fill="#e6edf3" fill-opacity=".75">contributions in 12 months</text></g>
<g><rect x="326.0" y="36" width="262.0" height="122" rx="14" fill="#080c14" stroke="#13303c" stroke-width="1.2"/><text x="350.0" y="98" font-family="'Segoe UI', 'Helvetica Neue', Helvetica, Arial, sans-serif" font-size="46" font-weight="800" fill="#e6edf3" letter-spacing="-1">1<tspan font-size="20" font-weight="600" fill="#7d8794" letter-spacing="0"> days</tspan></text><rect x="350.0" y="112" width="34" height="4" rx="2" fill="url(#line)"/><text x="350.0" y="140" font-family="'Segoe UI', 'Helvetica Neue', Helvetica, Arial, sans-serif" font-size="17" fill="#e6edf3" fill-opacity=".75">current streak</text></g>
<g><rect x="612.0" y="36" width="262.0" height="122" rx="14" fill="#080c14" stroke="#13303c" stroke-width="1.2"/><text x="636.0" y="98" font-family="'Segoe UI', 'Helvetica Neue', Helvetica, Arial, sans-serif" font-size="46" font-weight="800" fill="#e6edf3" letter-spacing="-1">9<tspan font-size="20" font-weight="600" fill="#7d8794" letter-spacing="0"> days</tspan></text><rect x="636.0" y="112" width="34" height="4" rx="2" fill="url(#line)"/><text x="636.0" y="140" font-family="'Segoe UI', 'Helvetica Neue', Helvetica, Arial, sans-serif" font-size="17" fill="#e6edf3" fill-opacity=".75">longest streak</text></g>
<g><rect x="898.0" y="36" width="262.0" height="122" rx="14" fill="#080c14" stroke="#13303c" stroke-width="1.2"/><text x="922.0" y="98" font-family="'Segoe UI', 'Helvetica Neue', Helvetica, Arial, sans-serif" font-size="46" font-weight="800" fill="#e6edf3" letter-spacing="-1">15%</text><rect x="922.0" y="112" width="34" height="4" rx="2" fill="url(#line)"/><text x="922.0" y="140" font-family="'Segoe UI', 'Helvetica Neue', Helvetica, Arial, sans-serif" font-size="17" fill="#e6edf3" fill-opacity=".75">active days</text></g>
<text x="40" y="208" font-family="'Segoe UI', 'Helvetica Neue', Helvetica, Arial, sans-serif" font-size="20" font-weight="700" fill="#e6edf3">Weekly activity</text>
<line x1="64" y1="466" x2="724" y2="466" stroke="#13303c" stroke-width="1.5"/>
<line x1="64" y1="236" x2="724" y2="236" stroke="#13303c" stroke-dasharray="3 6"/><text x="54" y="241" text-anchor="end" font-family="'SFMono-Regular', Consolas, 'Liberation Mono', Menlo, monospace" font-size="13" fill="#7d8794">97</text><text x="54" y="471" text-anchor="end" font-family="'SFMono-Regular', Consolas, 'Liberation Mono', Menlo, monospace" font-size="13" fill="#7d8794">0</text>
<path d="M64.0,466.0 C66.1,466.0 72.5,466.0 76.7,466.0 C80.9,466.0 85.2,466.0 89.4,466.0 C93.6,466.0 97.8,466.0 102.1,466.0 C106.3,466.0 110.5,466.0 114.8,466.0 C119.0,466.0 123.2,466.0 127.5,466.0 C131.7,459.7 135.9,436.0 140.2,428.1 C144.4,420.2 148.6,422.9 152.8,418.6 C157.1,414.2 161.3,394.1 165.5,402.0 C169.8,409.9 174.0,455.3 178.2,466.0 C182.5,466.0 186.7,466.0 190.9,466.0 C195.2,464.8 199.4,458.9 203.6,458.9 C207.8,458.9 212.1,464.8 216.3,466.0 C220.5,466.0 224.8,466.0 229.0,466.0 C233.2,466.0 237.5,466.0 241.7,466.0 C245.9,465.6 250.2,463.6 254.4,463.6 C258.6,463.6 262.8,466.0 267.1,466.0 C271.3,464.4 275.5,459.7 279.8,454.1 C284.0,448.6 288.2,430.8 292.5,432.8 C296.7,434.8 300.9,460.5 305.2,466.0 C309.4,466.0 313.6,466.0 317.8,466.0 C322.1,447.8 326.3,358.5 330.5,356.9 C334.8,355.3 339.0,439.9 343.2,456.5 C347.5,466.0 351.7,456.9 355.9,456.5 C360.2,456.1 364.4,453.4 368.6,454.1 C372.8,454.9 377.1,466.0 381.3,461.3 C385.5,445.5 389.8,360.5 394.0,359.3 C398.2,358.1 402.5,436.4 406.7,454.1 C410.9,466.0 415.2,464.0 419.4,466.0 C423.6,466.0 427.8,466.0 432.1,466.0 C436.3,466.0 440.5,466.0 444.8,466.0 C449.0,466.0 453.2,466.0 457.5,466.0 C461.7,464.8 465.9,458.9 470.2,458.9 C474.4,458.9 478.6,466.0 482.8,466.0 C487.1,466.0 491.3,458.9 495.5,458.9 C499.8,458.9 504.0,464.8 508.2,466.0 C512.5,466.0 516.7,466.0 520.9,466.0 C525.2,466.0 529.4,466.0 533.6,466.0 C537.8,463.2 542.1,449.8 546.3,449.4 C550.5,449.0 554.8,461.3 559.0,463.6 C563.2,466.0 567.5,463.2 571.7,463.6 C575.9,464.0 580.2,465.6 584.4,466.0 C588.6,466.0 592.8,466.0 597.1,466.0 C601.3,466.0 605.5,466.0 609.8,466.0 C614.0,466.0 618.2,466.0 622.5,466.0 C626.7,466.0 630.9,466.0 635.2,466.0 C639.4,466.0 643.6,466.0 647.8,466.0 C652.1,466.0 656.3,466.0 660.5,466.0 C664.8,461.7 669.0,439.9 673.2,439.9 C677.5,439.9 681.7,461.7 685.9,466.0 C690.2,466.0 694.4,466.0 698.6,466.0 C702.8,456.9 707.1,449.8 711.3,411.5 C715.5,373.1 721.9,265.2 724.0,236.0 L724,466 L64,466 Z" fill="url(#area)"/>
<path d="M64.0,466.0 C66.1,466.0 72.5,466.0 76.7,466.0 C80.9,466.0 85.2,466.0 89.4,466.0 C93.6,466.0 97.8,466.0 102.1,466.0 C106.3,466.0 110.5,466.0 114.8,466.0 C119.0,466.0 123.2,466.0 127.5,466.0 C131.7,459.7 135.9,436.0 140.2,428.1 C144.4,420.2 148.6,422.9 152.8,418.6 C157.1,414.2 161.3,394.1 165.5,402.0 C169.8,409.9 174.0,455.3 178.2,466.0 C182.5,466.0 186.7,466.0 190.9,466.0 C195.2,464.8 199.4,458.9 203.6,458.9 C207.8,458.9 212.1,464.8 216.3,466.0 C220.5,466.0 224.8,466.0 229.0,466.0 C233.2,466.0 237.5,466.0 241.7,466.0 C245.9,465.6 250.2,463.6 254.4,463.6 C258.6,463.6 262.8,466.0 267.1,466.0 C271.3,464.4 275.5,459.7 279.8,454.1 C284.0,448.6 288.2,430.8 292.5,432.8 C296.7,434.8 300.9,460.5 305.2,466.0 C309.4,466.0 313.6,466.0 317.8,466.0 C322.1,447.8 326.3,358.5 330.5,356.9 C334.8,355.3 339.0,439.9 343.2,456.5 C347.5,466.0 351.7,456.9 355.9,456.5 C360.2,456.1 364.4,453.4 368.6,454.1 C372.8,454.9 377.1,466.0 381.3,461.3 C385.5,445.5 389.8,360.5 394.0,359.3 C398.2,358.1 402.5,436.4 406.7,454.1 C410.9,466.0 415.2,464.0 419.4,466.0 C423.6,466.0 427.8,466.0 432.1,466.0 C436.3,466.0 440.5,466.0 444.8,466.0 C449.0,466.0 453.2,466.0 457.5,466.0 C461.7,464.8 465.9,458.9 470.2,458.9 C474.4,458.9 478.6,466.0 482.8,466.0 C487.1,466.0 491.3,458.9 495.5,458.9 C499.8,458.9 504.0,464.8 508.2,466.0 C512.5,466.0 516.7,466.0 520.9,466.0 C525.2,466.0 529.4,466.0 533.6,466.0 C537.8,463.2 542.1,449.8 546.3,449.4 C550.5,449.0 554.8,461.3 559.0,463.6 C563.2,466.0 567.5,463.2 571.7,463.6 C575.9,464.0 580.2,465.6 584.4,466.0 C588.6,466.0 592.8,466.0 597.1,466.0 C601.3,466.0 605.5,466.0 609.8,466.0 C614.0,466.0 618.2,466.0 622.5,466.0 C626.7,466.0 630.9,466.0 635.2,466.0 C639.4,466.0 643.6,466.0 647.8,466.0 C652.1,466.0 656.3,466.0 660.5,466.0 C664.8,461.7 669.0,439.9 673.2,439.9 C677.5,439.9 681.7,461.7 685.9,466.0 C690.2,466.0 694.4,466.0 698.6,466.0 C702.8,456.9 707.1,449.8 711.3,411.5 C715.5,373.1 721.9,265.2 724.0,236.0" fill="none" stroke="url(#line)" stroke-width="2.5" stroke-linejoin="round" stroke-linecap="round"/>
<circle r="4" fill="#22d3ee" opacity=".9"><animateMotion dur="7s" repeatCount="indefinite" path="M64.0,466.0 C66.1,466.0 72.5,466.0 76.7,466.0 C80.9,466.0 85.2,466.0 89.4,466.0 C93.6,466.0 97.8,466.0 102.1,466.0 C106.3,466.0 110.5,466.0 114.8,466.0 C119.0,466.0 123.2,466.0 127.5,466.0 C131.7,459.7 135.9,436.0 140.2,428.1 C144.4,420.2 148.6,422.9 152.8,418.6 C157.1,414.2 161.3,394.1 165.5,402.0 C169.8,409.9 174.0,455.3 178.2,466.0 C182.5,466.0 186.7,466.0 190.9,466.0 C195.2,464.8 199.4,458.9 203.6,458.9 C207.8,458.9 212.1,464.8 216.3,466.0 C220.5,466.0 224.8,466.0 229.0,466.0 C233.2,466.0 237.5,466.0 241.7,466.0 C245.9,465.6 250.2,463.6 254.4,463.6 C258.6,463.6 262.8,466.0 267.1,466.0 C271.3,464.4 275.5,459.7 279.8,454.1 C284.0,448.6 288.2,430.8 292.5,432.8 C296.7,434.8 300.9,460.5 305.2,466.0 C309.4,466.0 313.6,466.0 317.8,466.0 C322.1,447.8 326.3,358.5 330.5,356.9 C334.8,355.3 339.0,439.9 343.2,456.5 C347.5,466.0 351.7,456.9 355.9,456.5 C360.2,456.1 364.4,453.4 368.6,454.1 C372.8,454.9 377.1,466.0 381.3,461.3 C385.5,445.5 389.8,360.5 394.0,359.3 C398.2,358.1 402.5,436.4 406.7,454.1 C410.9,466.0 415.2,464.0 419.4,466.0 C423.6,466.0 427.8,466.0 432.1,466.0 C436.3,466.0 440.5,466.0 444.8,466.0 C449.0,466.0 453.2,466.0 457.5,466.0 C461.7,464.8 465.9,458.9 470.2,458.9 C474.4,458.9 478.6,466.0 482.8,466.0 C487.1,466.0 491.3,458.9 495.5,458.9 C499.8,458.9 504.0,464.8 508.2,466.0 C512.5,466.0 516.7,466.0 520.9,466.0 C525.2,466.0 529.4,466.0 533.6,466.0 C537.8,463.2 542.1,449.8 546.3,449.4 C550.5,449.0 554.8,461.3 559.0,463.6 C563.2,466.0 567.5,463.2 571.7,463.6 C575.9,464.0 580.2,465.6 584.4,466.0 C588.6,466.0 592.8,466.0 597.1,466.0 C601.3,466.0 605.5,466.0 609.8,466.0 C614.0,466.0 618.2,466.0 622.5,466.0 C626.7,466.0 630.9,466.0 635.2,466.0 C639.4,466.0 643.6,466.0 647.8,466.0 C652.1,466.0 656.3,466.0 660.5,466.0 C664.8,461.7 669.0,439.9 673.2,439.9 C677.5,439.9 681.7,461.7 685.9,466.0 C690.2,466.0 694.4,466.0 698.6,466.0 C702.8,456.9 707.1,449.8 711.3,411.5 C715.5,373.1 721.9,265.2 724.0,236.0"/></circle>
<text x="64" y="490" text-anchor="middle" font-family="'Segoe UI', 'Helvetica Neue', Helvetica, Arial, sans-serif" font-size="13" fill="#7d8794">Oct</text>
<text x="115" y="490" text-anchor="middle" font-family="'Segoe UI', 'Helvetica Neue', Helvetica, Arial, sans-serif" font-size="13" fill="#7d8794">Nov</text>
<text x="178" y="490" text-anchor="middle" font-family="'Segoe UI', 'Helvetica Neue', Helvetica, Arial, sans-serif" font-size="13" fill="#7d8794">Dec</text>
<text x="229" y="490" text-anchor="middle" font-family="'Segoe UI', 'Helvetica Neue', Helvetica, Arial, sans-serif" font-size="13" fill="#7d8794">Jan</text>
<text x="280" y="490" text-anchor="middle" font-family="'Segoe UI', 'Helvetica Neue', Helvetica, Arial, sans-serif" font-size="13" fill="#7d8794">Feb</text>
<text x="331" y="490" text-anchor="middle" font-family="'Segoe UI', 'Helvetica Neue', Helvetica, Arial, sans-serif" font-size="13" fill="#7d8794">Mar</text>
<text x="394" y="490" text-anchor="middle" font-family="'Segoe UI', 'Helvetica Neue', Helvetica, Arial, sans-serif" font-size="13" fill="#7d8794">Apr</text>
<text x="445" y="490" text-anchor="middle" font-family="'Segoe UI', 'Helvetica Neue', Helvetica, Arial, sans-serif" font-size="13" fill="#7d8794">May</text>
<text x="508" y="490" text-anchor="middle" font-family="'Segoe UI', 'Helvetica Neue', Helvetica, Arial, sans-serif" font-size="13" fill="#7d8794">Jun</text>
<text x="559" y="490" text-anchor="middle" font-family="'Segoe UI', 'Helvetica Neue', Helvetica, Arial, sans-serif" font-size="13" fill="#7d8794">Jul</text>
<text x="610" y="490" text-anchor="middle" font-family="'Segoe UI', 'Helvetica Neue', Helvetica, Arial, sans-serif" font-size="13" fill="#7d8794">Aug</text>
<text x="673" y="490" text-anchor="middle" font-family="'Segoe UI', 'Helvetica Neue', Helvetica, Arial, sans-serif" font-size="13" fill="#7d8794">Sep</text>
<circle cx="724.0" cy="236.0" r="7" fill="#080c14" stroke="#a78bfa" stroke-width="3"/><circle class="twinkle" cx="724.0" cy="236.0" r="13" fill="none" stroke="#a78bfa" stroke-opacity=".5"/><rect x="596.0" y="190.0" width="116" height="26" rx="13" fill="#080c14" stroke="#13303c"/><text x="654.0" y="208.0" text-anchor="middle" font-family="'Segoe UI', 'Helvetica Neue', Helvetica, Arial, sans-serif" font-size="13.5" fill="#e6edf3"><tspan font-weight="700">97</tspan> this week</text>
<line x1="760" y1="200" x2="760" y2="520" stroke="#13303c"/>
<text x="790" y="208" font-family="'Segoe UI', 'Helvetica Neue', Helvetica, Arial, sans-serif" font-size="20" font-weight="700" fill="#e6edf3">Most used languages</text>
<text x="790" y="240" font-family="'Segoe UI', 'Helvetica Neue', Helvetica, Arial, sans-serif" font-size="16" fill="#e6edf3">TypeScript</text><text x="1160" y="240" text-anchor="end" font-family="'SFMono-Regular', Consolas, 'Liberation Mono', Menlo, monospace" font-size="15" fill="#7d8794">46.6%</text><rect x="790" y="250" width="370" height="10" rx="5" fill="#13303c" fill-opacity=".6"/><rect x="790" y="250" width="172.4" height="10" rx="5" fill="#3178c6"/>
<text x="790" y="290" font-family="'Segoe UI', 'Helvetica Neue', Helvetica, Arial, sans-serif" font-size="16" fill="#e6edf3">Python</text><text x="1160" y="290" text-anchor="end" font-family="'SFMono-Regular', Consolas, 'Liberation Mono', Menlo, monospace" font-size="15" fill="#7d8794">24.7%</text><rect x="790" y="300" width="370" height="10" rx="5" fill="#13303c" fill-opacity=".6"/><rect x="790" y="300" width="91.3" height="10" rx="5" fill="#3572A5"/>
<text x="790" y="340" font-family="'Segoe UI', 'Helvetica Neue', Helvetica, Arial, sans-serif" font-size="16" fill="#e6edf3">Go</text><text x="1160" y="340" text-anchor="end" font-family="'SFMono-Regular', Consolas, 'Liberation Mono', Menlo, monospace" font-size="15" fill="#7d8794">23.9%</text><rect x="790" y="350" width="370" height="10" rx="5" fill="#13303c" fill-opacity=".6"/><rect x="790" y="350" width="88.5" height="10" rx="5" fill="#00ADD8"/>
<text x="790" y="390" font-family="'Segoe UI', 'Helvetica Neue', Helvetica, Arial, sans-serif" font-size="16" fill="#e6edf3">HCL</text><text x="1160" y="390" text-anchor="end" font-family="'SFMono-Regular', Consolas, 'Liberation Mono', Menlo, monospace" font-size="15" fill="#7d8794">2.6%</text><rect x="790" y="400" width="370" height="10" rx="5" fill="#13303c" fill-opacity=".6"/><rect x="790" y="400" width="10.0" height="10" rx="5" fill="#844FBA"/>
<text x="790" y="440" font-family="'Segoe UI', 'Helvetica Neue', Helvetica, Arial, sans-serif" font-size="16" fill="#e6edf3">JavaScript</text><text x="1160" y="440" text-anchor="end" font-family="'SFMono-Regular', Consolas, 'Liberation Mono', Menlo, monospace" font-size="15" fill="#7d8794">1.0%</text><rect x="790" y="450" width="370" height="10" rx="5" fill="#13303c" fill-opacity=".6"/><rect x="790" y="450" width="10.0" height="10" rx="5" fill="#f1e05a"/>
<text x="790" y="490" font-family="'Segoe UI', 'Helvetica Neue', Helvetica, Arial, sans-serif" font-size="16" fill="#e6edf3">Other</text><text x="1160" y="490" text-anchor="end" font-family="'SFMono-Regular', Consolas, 'Liberation Mono', Menlo, monospace" font-size="15" fill="#7d8794">1.2%</text><rect x="790" y="500" width="370" height="10" rx="5" fill="#13303c" fill-opacity=".6"/><rect x="790" y="500" width="10.0" height="10" rx="5" fill="#7d8794"/>
</svg>